<svg width="181" height="181" viewBox="0 0 181 181" fill="none" xmlns="http://www.w3.org/2000/svg">
<rect width="86" height="86" fill="#F25022"/>
<path d="M42.484 60.343C39.9687 60.343 37.7147 59.9347 35.722 59.118C33.7293 58.3013 32.1287 57.0927 30.92 55.492C29.744 53.8913 29.1233 51.964 29.058 49.71H37.976C38.1067 50.984 38.5477 51.964 39.299 52.65C40.0503 53.3033 41.0303 53.63 42.239 53.63C43.4803 53.63 44.4603 53.3523 45.179 52.797C45.8977 52.209 46.257 51.4087 46.257 50.396C46.257 49.5467 45.963 48.8443 45.375 48.289C44.8197 47.7337 44.1173 47.2763 43.268 46.917C42.4513 46.5577 41.2753 46.1493 39.74 45.692C37.5187 45.006 35.7057 44.32 34.301 43.634C32.8963 42.948 31.6877 41.9353 30.675 40.596C29.6623 39.2567 29.156 37.509 29.156 35.353C29.156 32.1517 30.3157 29.6527 32.635 27.856C34.9543 26.0267 37.976 25.112 41.7 25.112C45.4893 25.112 48.5437 26.0267 50.863 27.856C53.1823 29.6527 54.4237 32.168 54.587 35.402H45.522C45.4567 34.2913 45.0483 33.4257 44.297 32.805C43.5457 32.1517 42.582 31.825 41.406 31.825C40.3933 31.825 39.5767 32.1027 38.956 32.658C38.3353 33.1807 38.025 33.9483 38.025 34.961C38.025 36.0717 38.5477 36.9373 39.593 37.558C40.6383 38.1787 42.2717 38.8483 44.493 39.567C46.7143 40.3183 48.511 41.037 49.883 41.723C51.2877 42.409 52.4963 43.4053 53.509 44.712C54.5217 46.0187 55.028 47.701 55.028 49.759C55.028 51.719 54.5217 53.4993 53.509 55.1C52.529 56.7007 51.0917 57.9747 49.197 58.922C47.3023 59.8693 45.0647 60.343 42.484 60.343Z" fill="white"/>
<rect x="95" width="86" height="86" fill="#80BA01"/>
<path d="M149.783 25.602V32.315H140.669V60H132.29V32.315H123.176V25.602H149.783Z" fill="white"/>
<rect x="95" y="95" width="86" height="86" fill="#FFB902"/>
<path d="M137.484 155.343C134.969 155.343 132.715 154.935 130.722 154.118C128.729 153.301 127.129 152.093 125.92 150.492C124.744 148.891 124.123 146.964 124.058 144.71H132.976C133.107 145.984 133.548 146.964 134.299 147.65C135.05 148.303 136.03 148.63 137.239 148.63C138.48 148.63 139.46 148.352 140.179 147.797C140.898 147.209 141.257 146.409 141.257 145.396C141.257 144.547 140.963 143.844 140.375 143.289C139.82 142.734 139.117 142.276 138.268 141.917C137.451 141.558 136.275 141.149 134.74 140.692C132.519 140.006 130.706 139.32 129.301 138.634C127.896 137.948 126.688 136.935 125.675 135.596C124.662 134.257 124.156 132.509 124.156 130.353C124.156 127.152 125.316 124.653 127.635 122.856C129.954 121.027 132.976 120.112 136.7 120.112C140.489 120.112 143.544 121.027 145.863 122.856C148.182 124.653 149.424 127.168 149.587 130.402H140.522C140.457 129.291 140.048 128.426 139.297 127.805C138.546 127.152 137.582 126.825 136.406 126.825C135.393 126.825 134.577 127.103 133.956 127.658C133.335 128.181 133.025 128.948 133.025 129.961C133.025 131.072 133.548 131.937 134.593 132.558C135.638 133.179 137.272 133.848 139.493 134.567C141.714 135.318 143.511 136.037 144.883 136.723C146.288 137.409 147.496 138.405 148.509 139.712C149.522 141.019 150.028 142.701 150.028 144.759C150.028 146.719 149.522 148.499 148.509 150.1C147.529 151.701 146.092 152.975 144.197 153.922C142.302 154.869 140.065 155.343 137.484 155.343Z" fill="white"/>
<rect y="95" width="86" height="86" fill="#02A4EF"/>
<path d="M61.993 120.602V155H53.614V134.371L45.921 155H39.159L31.417 134.322V155H23.038V120.602H32.936L42.589 144.416L52.144 120.602H61.993Z" fill="white"/>
</svg>
